<?xml version="1.0" encoding="UTF-8"?>
<svg xmlns="http://www.w3.org/2000/svg" xmlns:xlink="http://www.w3.org/1999/xlink" width="16pt" height="15pt" viewBox="0 0 16 15" version="1.1">
<g id="surface1">
<path style=" stroke:none;fill-rule:nonzero;fill:rgb(0%,0%,0%);fill-opacity:1;" d="M 16 7.671875 C 16 11.816406 12.824219 14.765625 8.132812 14.765625 C 3.632812 14.765625 0 11.519531 0 7.5 C 0 3.480469 3.632812 0.234375 8.132812 0.234375 C 10.320312 0.234375 12.164062 0.953125 13.582031 2.136719 L 11.371094 4.039062 C 8.476562 1.539062 3.09375 3.414062 3.09375 7.5 C 3.09375 10.035156 5.355469 12.085938 8.132812 12.085938 C 11.351562 12.085938 12.558594 10.027344 12.746094 8.957031 L 8.132812 8.957031 L 8.132812 6.457031 L 15.871094 6.457031 C 15.949219 6.828125 16 7.1875 16 7.671875 Z M 16 7.671875 "/>
</g>
</svg>
