<?xml version="1.0" encoding="UTF-8"?>
<svg xmlns="http://www.w3.org/2000/svg" xmlns:xlink="http://www.w3.org/1999/xlink" width="15pt" height="16pt" viewBox="0 0 15 16" version="1.1">
<g id="surface1">
<path style=" stroke:none;fill-rule:nonzero;fill:rgb(0%,0%,0%);fill-opacity:1;" d="M 3.316406 14.167969 L 0.242188 14.167969 L 0.242188 4.710938 L 3.316406 4.710938 Z M 1.777344 3.417969 C 0.792969 3.417969 0 2.640625 0 1.699219 C 0 0.761719 0.792969 0 1.777344 0 C 2.761719 0 3.554688 0.761719 3.554688 1.699219 C 3.554688 2.640625 2.761719 3.417969 1.777344 3.417969 Z M 14.796875 14.167969 L 11.738281 14.167969 L 11.738281 9.5625 C 11.738281 8.464844 11.714844 7.058594 10.140625 7.058594 C 8.546875 7.058594 8.300781 8.25 8.300781 9.484375 L 8.300781 14.167969 L 5.234375 14.167969 L 5.234375 4.710938 L 8.179688 4.710938 L 8.179688 5.996094 L 8.222656 5.996094 C 8.632812 5.257812 9.632812 4.472656 11.125 4.472656 C 14.230469 4.472656 14.800781 6.429688 14.800781 8.96875 L 14.800781 14.167969 Z M 14.796875 14.167969 "/>
</g>
</svg>
