<?xml version="1.0" encoding="UTF-8"?>
<svg xmlns="http://www.w3.org/2000/svg" xmlns:xlink="http://www.w3.org/1999/xlink" width="12pt" height="16pt" viewBox="0 0 12 16" version="1.1">
<g id="surface1">
<path style=" stroke:none;fill-rule:nonzero;fill:rgb(0%,0%,0%);fill-opacity:1;" d="M 6.375 0.203125 C 3.167969 0.203125 0 2.378906 0 5.890625 C 0 8.125 1.238281 9.394531 1.988281 9.394531 C 2.296875 9.394531 2.476562 8.519531 2.476562 8.273438 C 2.476562 7.972656 1.734375 7.347656 1.734375 6.117188 C 1.734375 3.570312 3.648438 1.757812 6.121094 1.757812 C 8.25 1.757812 9.824219 2.988281 9.824219 5.242188 C 9.824219 6.929688 9.160156 10.085938 7.003906 10.085938 C 6.226562 10.085938 5.558594 9.515625 5.558594 8.703125 C 5.558594 7.5 6.382812 6.335938 6.382812 5.101562 C 6.382812 3 3.449219 3.378906 3.449219 5.917969 C 3.449219 6.449219 3.515625 7.039062 3.75 7.53125 C 3.320312 9.414062 2.4375 12.222656 2.4375 14.164062 C 2.4375 14.765625 2.523438 15.355469 2.578125 15.957031 C 2.683594 16.074219 2.628906 16.0625 2.792969 16 C 4.367188 13.8125 4.3125 13.382812 5.023438 10.515625 C 5.410156 11.257812 6.402344 11.660156 7.191406 11.660156 C 10.507812 11.660156 12 8.375 12 5.414062 C 12 2.261719 9.320312 0.203125 6.375 0.203125 Z M 6.375 0.203125 "/>
</g>
</svg>
